# xmcd
#
# Track frame offsets:
#	150
#	14254
#	27391
#	43920
#	58389
#	71121
#	86166
#	101011
#	114076
#	127695
#	143778
#	162492
#	175193
#	191632
#
# Disc length: 2736
#
# Revision: 2
# Processed by: cddbd v1.5.1PL0 Copyright (c) Steve Scherf et al.
# Submitted via: audiograbber 1.81.02
# Normalized: r1:TDELIM( - )
#
DISCID=c50aae0e
DTITLE=Various Artist - Mr Music Country
DYEAR=2003
DGENRE=Country
TTITLE0=Daryle Singletary - I'd love to lay you down
TTITLE1=Heather Myles - Nashville's gone Hollywood
TTITLE2=Ricky van Shelton - You go your way (and I'll go crazy)
TTITLE3=Tom Horner - He picked up where I left off
TTITLE4=Glenn Canyon - Country music hall of fame
TTITLE5=Doug Stone - I'd be better off (in a pinebox)
TTITLE6=Buddy Miller - Oh fait pitié d'amour (Love have mercy on me)
TTITLE7=Danni Leigh - He used to say that to me
TTITLE8=Glynn Martin - Dig a little deeper
TTITLE9=Loretta Lynn - Table for two
TTITLE10=Confederate Railroad - Thick as thieves
TTITLE11=Brent Woodall and The Natchez trace band - Hey good lookin'
TTITLE12=Van Warren - Vino san gria
TTITLE13=Marcha Britton - Midnight Louisiana run
EXTD=
EXTT0=
EXTT1=
EXTT2=
EXTT3=
EXTT4=
EXTT5=
EXTT6=
EXTT7=
EXTT8=
EXTT9=
EXTT10=
EXTT11=
EXTT12=
EXTT13=
PLAYORDER=
